<svg width="512" height="512" viewBox="0 0 512 512" fill="none" xmlns="http://www.w3.org/2000/svg">
<rect width="512" height="512" rx="64" fill="#3ABFC9"/>
<path fill-rule="evenodd" clip-rule="evenodd" d="M318.551 218.389C320.848 220.507 323.004 222.766 325.019 225.201C326.998 222.766 329.154 220.507 331.486 218.389C338.661 211.823 346.825 206.846 355.978 203.493C365.344 200.104 375.098 198.41 385.241 198.41C395.385 198.41 405.033 200.104 414.222 203.493C423.587 206.882 431.857 211.859 438.996 218.389C446.136 224.919 451.826 233.002 456.031 242.533C457.092 244.933 458.046 247.439 458.859 250.016L422.845 260.888C422.421 259.582 421.962 258.347 421.396 257.146C419.417 252.169 416.625 248.004 413.02 244.616C409.451 241.227 405.245 238.65 400.474 236.85C395.703 235.05 390.613 234.167 385.241 234.167C379.869 234.167 374.78 235.05 370.009 236.85C365.238 238.65 361.068 241.227 357.463 244.616C353.893 248.004 350.995 252.169 348.804 257.146C346.825 261.912 345.835 267.383 345.835 273.56V279.526C345.835 285.703 346.825 291.245 348.804 296.222C350.995 300.987 353.893 305.082 357.463 308.435C361.032 311.788 365.238 314.401 370.009 316.201C374.78 318.001 379.869 318.883 385.241 318.883C390.613 318.883 395.703 318.001 400.474 316.201C405.245 314.401 409.415 311.824 413.02 308.435C416.625 305.046 419.382 300.987 421.396 296.222C421.997 294.88 422.492 293.504 422.916 292.092L459 302.964C458.152 305.788 457.162 308.506 456.031 311.118C451.861 320.472 446.171 328.414 438.996 334.98C431.822 341.333 423.552 346.204 414.222 349.593C405.068 352.982 395.42 354.676 385.241 354.676C375.063 354.676 365.344 352.982 355.978 349.593C346.825 346.204 338.661 341.333 331.486 334.98C329.189 332.862 327.033 330.603 325.019 328.202C323.04 330.603 320.884 332.862 318.551 334.98C311.377 341.333 303.107 346.204 293.777 349.593C284.623 352.982 274.975 354.676 264.796 354.676C254.618 354.676 244.899 352.982 235.533 349.593C226.38 346.204 218.216 341.333 211.041 334.98C203.867 328.414 198.212 320.472 194.006 311.118C189.836 301.587 187.751 290.645 187.751 278.326V274.76C187.751 262.618 189.836 251.887 194.006 242.533C198.177 233.002 203.867 224.919 211.041 218.389C218.216 211.823 226.38 206.846 235.533 203.493C244.899 200.104 254.653 198.41 264.796 198.41C274.939 198.41 284.588 200.104 293.777 203.493C303.142 206.882 311.412 211.859 318.551 218.389ZM280.029 316.201C275.257 318.001 270.168 318.883 264.796 318.883C259.424 318.883 254.335 318.001 249.564 316.201C244.793 314.401 240.622 311.824 237.017 308.435C233.413 305.046 230.55 300.987 228.359 296.222C226.38 291.245 225.39 285.668 225.39 279.526V273.56C225.39 267.383 226.38 261.912 228.359 257.146C230.55 252.169 233.448 248.004 237.017 244.616C240.587 241.227 244.793 238.65 249.564 236.85C254.335 235.05 259.424 234.167 264.796 234.167C270.168 234.167 275.257 235.05 280.029 236.85C284.8 238.65 288.97 241.227 292.575 244.616C296.144 248.004 298.937 252.169 300.951 257.146C303.142 261.912 304.238 267.383 304.238 273.56V279.526C304.238 285.703 303.142 291.245 300.951 296.222C298.972 300.987 296.18 305.082 292.575 308.435C288.97 311.788 284.8 314.401 280.029 316.201Z" fill="white"/>
<path d="M355.943 203.493C346.789 206.882 338.625 211.859 331.451 218.389C329.154 220.507 326.998 222.766 324.983 225.201C338.166 241.121 343.609 258.629 345.8 281.044C345.8 280.549 345.8 280.055 345.8 279.526V273.56C345.8 267.383 346.789 261.912 348.769 257.147C350.96 252.169 353.858 248.004 357.427 244.616C360.361 241.862 363.718 239.639 367.429 237.909L355.943 203.458V203.493Z" fill="url(#paint0_linear_223_14)"/>
<path d="M52.8861 202.61H96.7807V141.756H134.42V202.61H187.857V238.403H134.42V305.823C134.42 311.788 137.106 314.754 142.478 314.754H182.485V350.546H119.788C113.003 350.546 107.454 348.358 103.072 343.981C98.9012 339.604 96.8161 334.027 96.8161 327.285V238.403H52.8861V202.61Z" fill="white"/>
<defs>
<linearGradient id="paint0_linear_223_14" x1="333.501" y1="248.569" x2="367.808" y2="236.082" gradientUnits="userSpaceOnUse">
<stop offset="0.11" stop-color="#C3DBD7"/>
<stop offset="0.67" stop-color="white"/>
</linearGradient>
</defs>
</svg>
